<svg id="my-svg" width="100%" xmlns="http://www.w3.org/2000/svg" xmlns:xlink="http://www.w3.org/1999/xlink" style="max-width: 747.711px; background-color: white;" viewBox="-8 -8 747.7109375 1117.6640625" role="graphics-document document" aria-roledescription="flowchart-v2"><style>#my-svg{font-family:"trebuchet ms",verdana,arial,sans-serif;font-size:16px;fill:#333;}#my-svg .error-icon{fill:#552222;}#my-svg .error-text{fill:#552222;stroke:#552222;}#my-svg .edge-thickness-normal{stroke-width:2px;}#my-svg .edge-thickness-thick{stroke-width:3.5px;}#my-svg .edge-pattern-solid{stroke-dasharray:0;}#my-svg .edge-pattern-dashed{stroke-dasharray:3;}#my-svg .edge-pattern-dotted{stroke-dasharray:2;}#my-svg .marker{fill:#333333;stroke:#333333;}#my-svg .marker.cross{stroke:#333333;}#my-svg svg{font-family:"trebuchet ms",verdana,arial,sans-serif;font-size:16px;}#my-svg .label{font-family:"trebuchet ms",verdana,arial,sans-serif;color:#333;}#my-svg .cluster-label text{fill:#333;}#my-svg .cluster-label span,#my-svg p{color:#333;}#my-svg .label text,#my-svg span,#my-svg p{fill:#333;color:#333;}#my-svg .node rect,#my-svg .node circle,#my-svg .node ellipse,#my-svg .node polygon,#my-svg .node path{fill:#ECECFF;stroke:#9370DB;stroke-width:1px;}#my-svg .flowchart-label text{text-anchor:middle;}#my-svg .node .katex path{fill:#000;stroke:#000;stroke-width:1px;}#my-svg .node .label{text-align:center;}#my-svg .node.clickable{cursor:pointer;}#my-svg .arrowheadPath{fill:#333333;}#my-svg .edgePath .path{stroke:#333333;stroke-width:2.0px;}#my-svg .flowchart-link{stroke:#333333;fill:none;}#my-svg .edgeLabel{background-color:#e8e8e8;text-align:center;}#my-svg .edgeLabel rect{opacity:0.5;background-color:#e8e8e8;fill:#e8e8e8;}#my-svg .labelBkg{background-color:rgba(232, 232, 232, 0.5);}#my-svg .cluster rect{fill:#ffffde;stroke:#aaaa33;stroke-width:1px;}#my-svg .cluster text{fill:#333;}#my-svg .cluster span,#my-svg p{color:#333;}#my-svg div.mermaidTooltip{position:absolute;text-align:center;max-width:200px;padding:2px;font-family:"trebuchet ms",verdana,arial,sans-serif;font-size:12px;background:hsl(80, 100%, 96.2745098039%);border:1px solid #aaaa33;border-radius:2px;pointer-events:none;z-index:100;}#my-svg .flowchartTitleText{text-anchor:middle;font-size:18px;fill:#333;}#my-svg :root{--mermaid-font-family:"trebuchet ms",verdana,arial,sans-serif;}</style><g><marker id="my-svg_flowchart-pointEnd" class="marker flowchart" viewBox="0 0 10 10" refX="6" refY="5" markerUnits="userSpaceOnUse" markerWidth="12" markerHeight="12" orient="auto"><path d="M 0 0 L 10 5 L 0 10 z" class="arrowMarkerPath" style="stroke-width: 1; stroke-dasharray: 1, 0;"/></marker><marker id="my-svg_flowchart-pointStart" class="marker flowchart" viewBox="0 0 10 10" refX="4.5" refY="5" markerUnits="userSpaceOnUse" markerWidth="12" markerHeight="12" orient="auto"><path d="M 0 5 L 10 10 L 10 0 z" class="arrowMarkerPath" style="stroke-width: 1; stroke-dasharray: 1, 0;"/></marker><marker id="my-svg_flowchart-circleEnd" class="marker flowchart" viewBox="0 0 10 10" refX="11" refY="5" markerUnits="userSpaceOnUse" markerWidth="11" markerHeight="11" orient="auto"><circle cx="5" cy="5" r="5" class="arrowMarkerPath" style="stroke-width: 1; stroke-dasharray: 1, 0;"/></marker><marker id="my-svg_flowchart-circleStart" class="marker flowchart" viewBox="0 0 10 10" refX="-1" refY="5" markerUnits="userSpaceOnUse" markerWidth="11" markerHeight="11" orient="auto"><circle cx="5" cy="5" r="5" class="arrowMarkerPath" style="stroke-width: 1; stroke-dasharray: 1, 0;"/></marker><marker id="my-svg_flowchart-crossEnd" class="marker cross flowchart" viewBox="0 0 11 11" refX="12" refY="5.2" markerUnits="userSpaceOnUse" markerWidth="11" markerHeight="11" orient="auto"><path d="M 1,1 l 9,9 M 10,1 l -9,9" class="arrowMarkerPath" style="stroke-width: 2; stroke-dasharray: 1, 0;"/></marker><marker id="my-svg_flowchart-crossStart" class="marker cross flowchart" viewBox="0 0 11 11" refX="-1" refY="5.2" markerUnits="userSpaceOnUse" markerWidth="11" markerHeight="11" orient="auto"><path d="M 1,1 l 9,9 M 10,1 l -9,9" class="arrowMarkerPath" style="stroke-width: 2; stroke-dasharray: 1, 0;"/></marker><g class="root"><g class="clusters"/><g class="edgePaths"><path d="M389.814,33.5L389.814,37.667C389.814,41.833,389.814,50.167,389.88,57.7C389.946,65.234,390.079,71.967,390.145,75.334L390.211,78.701" id="L-A-B-0" class="edge-thickness-normal edge-pattern-solid flowchart-link LS-A LE-B" style="fill:none;" marker-end="url(#my-svg_flowchart-pointEnd)"/><path d="M362.202,133.068L334.233,143.378C306.264,153.688,250.325,174.309,222.356,193.244C194.387,212.18,194.387,229.43,194.387,245.138C194.387,260.846,194.387,275.013,194.387,285.38C194.387,295.746,194.387,302.313,194.387,305.596L194.387,308.88" id="L-B-C-0" class="edge-thickness-normal edge-pattern-solid flowchart-link LS-B LE-C" style="fill:none;" marker-end="url(#my-svg_flowchart-pointEnd)"/><path d="M194.387,349.18L194.387,353.346C194.387,357.513,194.387,365.846,194.387,373.296C194.387,380.746,194.387,387.313,194.387,390.596L194.387,393.88" id="L-C-C1-0" class="edge-thickness-normal edge-pattern-solid flowchart-link LS-C LE-C1" style="fill:none;" marker-end="url(#my-svg_flowchart-pointEnd)"/><path d="M194.387,432.68L194.387,436.846C194.387,441.013,194.387,449.346,212.683,457.492C230.98,465.638,267.572,473.596,285.869,477.574L304.165,481.553" id="L-C1-D-0" class="edge-thickness-normal edge-pattern-solid flowchart-link LS-C1 LE-D" style="fill:none;" marker-end="url(#my-svg_flowchart-pointEnd)"/><path d="M418.426,133.068L446.229,143.378C474.032,153.688,529.637,174.309,557.44,189.444C585.242,204.58,585.242,214.23,585.242,219.055L585.242,223.88" id="L-B-E-0" class="edge-thickness-normal edge-pattern-solid flowchart-link LS-B LE-E" style="fill:none;" marker-end="url(#my-svg_flowchart-pointEnd)"/><path d="M585.242,264.18L585.242,268.346C585.242,272.513,585.242,280.846,585.242,288.296C585.242,295.746,585.242,302.313,585.242,305.596L585.242,308.88" id="L-E-E1-0" class="edge-thickness-normal edge-pattern-solid flowchart-link LS-E LE-E1" style="fill:none;" marker-end="url(#my-svg_flowchart-pointEnd)"/><path d="M585.242,349.18L585.242,353.346C585.242,357.513,585.242,365.846,585.242,373.296C585.242,380.746,585.242,387.313,585.242,390.596L585.242,393.88" id="L-E1-E2-0" class="edge-thickness-normal edge-pattern-solid flowchart-link LS-E1 LE-E2" style="fill:none;" marker-end="url(#my-svg_flowchart-pointEnd)"/><path d="M585.242,432.68L585.242,436.846C585.242,441.013,585.242,449.346,566.946,457.492C548.649,465.638,512.056,473.596,493.76,477.574L475.464,481.553" id="L-E2-D-0" class="edge-thickness-normal edge-pattern-solid flowchart-link LS-E2 LE-D" style="fill:none;" marker-end="url(#my-svg_flowchart-pointEnd)"/><path d="M389.814,517.68L389.814,521.846C389.814,526.013,389.814,534.346,389.814,541.796C389.814,549.246,389.814,555.813,389.814,559.096L389.814,562.38" id="L-D-F-0" class="edge-thickness-normal edge-pattern-solid flowchart-link LS-D LE-F" style="fill:none;" marker-end="url(#my-svg_flowchart-pointEnd)"/><path d="M389.814,602.68L389.814,606.846C389.814,611.013,389.814,619.346,389.88,626.88C389.946,634.413,390.079,641.147,390.145,644.514L390.211,647.881" id="L-F-G-0" class="edge-thickness-normal edge-pattern-solid flowchart-link LS-F LE-G" style="fill:none;" marker-end="url(#my-svg_flowchart-pointEnd)"/><path d="M341.911,781.76L325.194,795.452C308.477,809.145,275.044,836.529,258.328,855.047C241.611,873.564,241.611,883.214,241.611,888.039L241.611,892.864" id="L-G-H-0" class="edge-thickness-normal edge-pattern-solid flowchart-link LS-G LE-H" style="fill:none;" marker-end="url(#my-svg_flowchart-pointEnd)"/><path d="M438.718,781.76L455.268,795.452C471.818,809.145,504.918,836.529,521.468,855.047C538.018,873.564,538.018,883.214,538.018,888.039L538.018,892.864" id="L-G-I-0" class="edge-thickness-normal edge-pattern-solid flowchart-link LS-G LE-I" style="fill:none;" marker-end="url(#my-svg_flowchart-pointEnd)"/><path d="M241.611,931.664L241.611,935.831C241.611,939.997,241.611,948.331,255.292,956.421C268.973,964.51,296.334,972.357,310.014,976.28L323.695,980.203" id="L-H-J-0" class="edge-thickness-normal edge-pattern-solid flowchart-link LS-H LE-J" style="fill:none;" marker-end="url(#my-svg_flowchart-pointEnd)"/><path d="M538.018,931.664L538.018,935.831C538.018,939.997,538.018,948.331,524.337,956.421C510.656,964.51,483.295,972.357,469.615,976.28L455.934,980.203" id="L-I-J-0" class="edge-thickness-normal edge-pattern-solid flowchart-link LS-I LE-J" style="fill:none;" marker-end="url(#my-svg_flowchart-pointEnd)"/><path d="M389.814,1016.664L389.814,1020.831C389.814,1024.997,389.814,1033.331,389.814,1040.781C389.814,1048.231,389.814,1054.797,389.814,1058.081L389.814,1061.364" id="L-J-K-0" class="edge-thickness-normal edge-pattern-solid flowchart-link LS-J LE-K" style="fill:none;" marker-end="url(#my-svg_flowchart-pointEnd)"/></g><g class="edgeLabels"><g class="edgeLabel"><g class="label" transform="translate(0, 0)"><foreignObject width="0" height="0"><div xmlns="http://www.w3.org/1999/xhtml" style="display: inline-block; white-space: nowrap;"><span class="edgeLabel"></span></div></foreignObject></g></g><g class="edgeLabel" transform="translate(194.38671875, 246.6796875)"><g class="label" transform="translate(-14.27734375, -9.25)"><foreignObject width="28.5546875" height="18.5"><div xmlns="http://www.w3.org/1999/xhtml" style="display: inline-block; white-space: nowrap;"><span class="edgeLabel">BUY</span></div></foreignObject></g></g><g class="edgeLabel"><g class="label" transform="translate(0, 0)"><foreignObject width="0" height="0"><div xmlns="http://www.w3.org/1999/xhtml" style="display: inline-block; white-space: nowrap;"><span class="edgeLabel"></span></div></foreignObject></g></g><g class="edgeLabel"><g class="label" transform="translate(0, 0)"><foreignObject width="0" height="0"><div xmlns="http://www.w3.org/1999/xhtml" style="display: inline-block; white-space: nowrap;"><span class="edgeLabel"></span></div></foreignObject></g></g><g class="edgeLabel" transform="translate(585.2421875, 194.9296875)"><g class="label" transform="translate(-16.234375, -9.25)"><foreignObject width="32.46875" height="18.5"><div xmlns="http://www.w3.org/1999/xhtml" style="display: inline-block; white-space: nowrap;"><span class="edgeLabel">SELL</span></div></foreignObject></g></g><g class="edgeLabel"><g class="label" transform="translate(0, 0)"><foreignObject width="0" height="0"><div xmlns="http://www.w3.org/1999/xhtml" style="display: inline-block; white-space: nowrap;"><span class="edgeLabel"></span></div></foreignObject></g></g><g class="edgeLabel"><g class="label" transform="translate(0, 0)"><foreignObject width="0" height="0"><div xmlns="http://www.w3.org/1999/xhtml" style="display: inline-block; white-space: nowrap;"><span class="edgeLabel"></span></div></foreignObject></g></g><g class="edgeLabel"><g class="label" transform="translate(0, 0)"><foreignObject width="0" height="0"><div xmlns="http://www.w3.org/1999/xhtml" style="display: inline-block; white-space: nowrap;"><span class="edgeLabel"></span></div></foreignObject></g></g><g class="edgeLabel"><g class="label" transform="translate(0, 0)"><foreignObject width="0" height="0"><div xmlns="http://www.w3.org/1999/xhtml" style="display: inline-block; white-space: nowrap;"><span class="edgeLabel"></span></div></foreignObject></g></g><g class="edgeLabel"><g class="label" transform="translate(0, 0)"><foreignObject width="0" height="0"><div xmlns="http://www.w3.org/1999/xhtml" style="display: inline-block; white-space: nowrap;"><span class="edgeLabel"></span></div></foreignObject></g></g><g class="edgeLabel" transform="translate(241.611328125, 863.9140625)"><g class="label" transform="translate(-11.546875, -9.25)"><foreignObject width="23.09375" height="18.5"><div xmlns="http://www.w3.org/1999/xhtml" style="display: inline-block; white-space: nowrap;"><span class="edgeLabel">yes</span></div></foreignObject></g></g><g class="edgeLabel" transform="translate(538.017578125, 863.9140625)"><g class="label" transform="translate(-8.6640625, -9.25)"><foreignObject width="17.328125" height="18.5"><div xmlns="http://www.w3.org/1999/xhtml" style="display: inline-block; white-space: nowrap;"><span class="edgeLabel">no</span></div></foreignObject></g></g><g class="edgeLabel"><g class="label" transform="translate(0, 0)"><foreignObject width="0" height="0"><div xmlns="http://www.w3.org/1999/xhtml" style="display: inline-block; white-space: nowrap;"><span class="edgeLabel"></span></div></foreignObject></g></g><g class="edgeLabel"><g class="label" transform="translate(0, 0)"><foreignObject width="0" height="0"><div xmlns="http://www.w3.org/1999/xhtml" style="display: inline-block; white-space: nowrap;"><span class="edgeLabel"></span></div></foreignObject></g></g><g class="edgeLabel"><g class="label" transform="translate(0, 0)"><foreignObject width="0" height="0"><div xmlns="http://www.w3.org/1999/xhtml" style="display: inline-block; white-space: nowrap;"><span class="edgeLabel"></span></div></foreignObject></g></g></g><g class="nodes"><g class="node default default flowchart-label" id="flowchart-A-0" data-node="true" data-id="A" transform="translate(389.814453125, 16.75)"><rect class="basic label-container" style="" rx="0" ry="0" x="-60.47265625" y="-16.75" width="120.9453125" height="33.5"/><g class="label" style="" transform="translate(-52.97265625, -9.25)"><rect/><foreignObject width="105.9453125" height="18.5"><div xmlns="http://www.w3.org/1999/xhtml" style="display: inline-block; white-space: nowrap;"><span class="nodeLabel">Trade SETTLED</span></div></foreignObject></g></g><g class="node default default flowchart-label" id="flowchart-B-1" data-node="true" data-id="B" transform="translate(389.814453125, 122.08984375)"><polygon points="38.58984375,0 77.1796875,-38.58984375 38.58984375,-77.1796875 0,-38.58984375" class="label-container" transform="translate(-38.58984375,38.58984375)" style=""/><g class="label" style="" transform="translate(-14.33984375, -9.25)"><rect/><foreignObject width="28.6796875" height="18.5"><div xmlns="http://www.w3.org/1999/xhtml" style="display: inline-block; white-space: nowrap;"><span class="nodeLabel">side</span></div></foreignObject></g></g><g class="node default default flowchart-label" id="flowchart-C-3" data-node="true" data-id="C" transform="translate(194.38671875, 331.6796875)"><rect class="basic label-container" style="" rx="0" ry="0" x="-53.84375" y="-17.5" width="107.6875" height="35"/><g class="label" style="" transform="translate(-46.34375, -10)"><rect/><foreignObject width="92.6875" height="20"><div xmlns="http://www.w3.org/1999/xhtml" style="display: inline-block; white-space: nowrap;"><span class="nodeLabel">매수 원가 계산</span></div></foreignObject></g></g><g class="node default default flowchart-label" id="flowchart-C1-5" data-node="true" data-id="C1" transform="translate(194.38671875, 415.9296875)"><rect class="basic label-container" style="" rx="0" ry="0" x="-194.38671875" y="-16.75" width="388.7734375" height="33.5"/><g class="label" style="" transform="translate(-186.88671875, -9.25)"><rect/><foreignObject width="373.7734375" height="18.5"><div xmlns="http://www.w3.org/1999/xhtml" style="display: inline-block; white-space: nowrap;"><span class="nodeLabel">costDelta = grossNotional + feeAmount + taxAmount</span></div></foreignObject></g></g><g class="node default default flowchart-label" id="flowchart-D-7" data-node="true" data-id="D" transform="translate(389.814453125, 500.1796875)"><rect class="basic label-container" style="" rx="0" ry="0" x="-118.0625" y="-17.5" width="236.125" height="35"/><g class="label" style="" transform="translate(-110.5625, -10)"><rect/><foreignObject width="221.125" height="20"><div xmlns="http://www.w3.org/1999/xhtml" style="display: inline-block; white-space: nowrap;"><span class="nodeLabel">기존 quantity / costBasis에 더함</span></div></foreignObject></g></g><g class="node default default flowchart-label" id="flowchart-E-9" data-node="true" data-id="E" transform="translate(585.2421875, 246.6796875)"><rect class="basic label-container" style="" rx="0" ry="0" x="-53.84375" y="-17.5" width="107.6875" height="35"/><g class="label" style="" transform="translate(-46.34375, -10)"><rect/><foreignObject width="92.6875" height="20"><div xmlns="http://www.w3.org/1999/xhtml" style="display: inline-block; white-space: nowrap;"><span class="nodeLabel">매도 원가 차감</span></div></foreignObject></g></g><g class="node default default flowchart-label" id="flowchart-E1-11" data-node="true" data-id="E1" transform="translate(585.2421875, 331.6796875)"><rect class="basic label-container" style="" rx="0" ry="0" x="-83.66796875" y="-17.5" width="167.3359375" height="35"/><g class="label" style="" transform="translate(-76.16796875, -10)"><rect/><foreignObject width="152.3359375" height="20"><div xmlns="http://www.w3.org/1999/xhtml" style="display: inline-block; white-space: nowrap;"><span class="nodeLabel">현재 averageCost 조회</span></div></foreignObject></g></g><g class="node default default flowchart-label" id="flowchart-E2-13" data-node="true" data-id="E2" transform="translate(585.2421875, 415.9296875)"><rect class="basic label-container" style="" rx="0" ry="0" x="-146.46875" y="-16.75" width="292.9375" height="33.5"/><g class="label" style="" transform="translate(-138.96875, -9.25)"><rect/><foreignObject width="277.9375" height="18.5"><div xmlns="http://www.w3.org/1999/xhtml" style="display: inline-block; white-space: nowrap;"><span class="nodeLabel">costDelta = quantity * averageCost * -1</span></div></foreignObject></g></g><g class="node default default flowchart-label" id="flowchart-F-17" data-node="true" data-id="F" transform="translate(389.814453125, 585.1796875)"><rect class="basic label-container" style="" rx="0" ry="0" x="-70.58984375" y="-17.5" width="141.1796875" height="35"/><g class="label" style="" transform="translate(-63.08984375, -10)"><rect/><foreignObject width="126.1796875" height="20"><div xmlns="http://www.w3.org/1999/xhtml" style="display: inline-block; white-space: nowrap;"><span class="nodeLabel">nextQuantity 계산</span></div></foreignObject></g></g><g class="node default default flowchart-label" id="flowchart-G-19" data-node="true" data-id="G" transform="translate(389.814453125, 741.171875)"><polygon points="88.4921875,0 176.984375,-88.4921875 88.4921875,-176.984375 0,-88.4921875" class="label-container" transform="translate(-88.4921875,88.4921875)" style=""/><g class="label" style="" transform="translate(-64.2421875, -9.25)"><rect/><foreignObject width="128.484375" height="18.5"><div xmlns="http://www.w3.org/1999/xhtml" style="display: inline-block; white-space: nowrap;"><span class="nodeLabel">nextQuantity == 0</span></div></foreignObject></g></g><g class="node default default flowchart-label" id="flowchart-H-21" data-node="true" data-id="H" transform="translate(241.611328125, 914.9140625)"><rect class="basic label-container" style="" rx="0" ry="0" x="-115.0859375" y="-16.75" width="230.171875" height="33.5"/><g class="label" style="" transform="translate(-107.5859375, -9.25)"><rect/><foreignObject width="215.171875" height="18.5"><div xmlns="http://www.w3.org/1999/xhtml" style="display: inline-block; white-space: nowrap;"><span class="nodeLabel">costBasis = 0, averageCost = 0</span></div></foreignObject></g></g><g class="node default default flowchart-label" id="flowchart-I-23" data-node="true" data-id="I" transform="translate(538.017578125, 914.9140625)"><rect class="basic label-container" style="" rx="0" ry="0" x="-131.3203125" y="-16.75" width="262.640625" height="33.5"/><g class="label" style="" transform="translate(-123.8203125, -9.25)"><rect/><foreignObject width="247.640625" height="18.5"><div xmlns="http://www.w3.org/1999/xhtml" style="display: inline-block; white-space: nowrap;"><span class="nodeLabel">averageCost = costBasis / quantity</span></div></foreignObject></g></g><g class="node default default flowchart-label" id="flowchart-J-25" data-node="true" data-id="J" transform="translate(389.814453125, 999.1640625)"><rect class="basic label-container" style="" rx="0" ry="0" x="-86.375" y="-17.5" width="172.75" height="35"/><g class="label" style="" transform="translate(-78.875, -10)"><rect/><foreignObject width="157.75" height="20"><div xmlns="http://www.w3.org/1999/xhtml" style="display: inline-block; white-space: nowrap;"><span class="nodeLabel">AverageCostEntry 저장</span></div></foreignObject></g></g><g class="node default default flowchart-label" id="flowchart-K-29" data-node="true" data-id="K" transform="translate(389.814453125, 1084.1640625)"><rect class="basic label-container" style="" rx="0" ry="0" x="-99.15234375" y="-17.5" width="198.3046875" height="35"/><g class="label" style="" transform="translate(-91.65234375, -10)"><rect/><foreignObject width="183.3046875" height="20"><div xmlns="http://www.w3.org/1999/xhtml" style="display: inline-block; white-space: nowrap;"><span class="nodeLabel">Current Average Cost 갱신</span></div></foreignObject></g></g></g></g></g></svg>