<svg id="my-svg" width="100%" xmlns="http://www.w3.org/2000/svg" xmlns:xlink="http://www.w3.org/1999/xlink" style="max-width: 1213.65px; background-color: white;" viewBox="-8 -8 1213.6484375 1283" role="graphics-document document" aria-roledescription="flowchart-v2"><style>#my-svg{font-family:"trebuchet ms",verdana,arial,sans-serif;font-size:16px;fill:#333;}#my-svg .error-icon{fill:#552222;}#my-svg .error-text{fill:#552222;stroke:#552222;}#my-svg .edge-thickness-normal{stroke-width:2px;}#my-svg .edge-thickness-thick{stroke-width:3.5px;}#my-svg .edge-pattern-solid{stroke-dasharray:0;}#my-svg .edge-pattern-dashed{stroke-dasharray:3;}#my-svg .edge-pattern-dotted{stroke-dasharray:2;}#my-svg .marker{fill:#333333;stroke:#333333;}#my-svg .marker.cross{stroke:#333333;}#my-svg svg{font-family:"trebuchet ms",verdana,arial,sans-serif;font-size:16px;}#my-svg .label{font-family:"trebuchet ms",verdana,arial,sans-serif;color:#333;}#my-svg .cluster-label text{fill:#333;}#my-svg .cluster-label span,#my-svg p{color:#333;}#my-svg .label text,#my-svg span,#my-svg p{fill:#333;color:#333;}#my-svg .node rect,#my-svg .node circle,#my-svg .node ellipse,#my-svg .node polygon,#my-svg .node path{fill:#ECECFF;stroke:#9370DB;stroke-width:1px;}#my-svg .flowchart-label text{text-anchor:middle;}#my-svg .node .katex path{fill:#000;stroke:#000;stroke-width:1px;}#my-svg .node .label{text-align:center;}#my-svg .node.clickable{cursor:pointer;}#my-svg .arrowheadPath{fill:#333333;}#my-svg .edgePath .path{stroke:#333333;stroke-width:2.0px;}#my-svg .flowchart-link{stroke:#333333;fill:none;}#my-svg .edgeLabel{background-color:#e8e8e8;text-align:center;}#my-svg .edgeLabel rect{opacity:0.5;background-color:#e8e8e8;fill:#e8e8e8;}#my-svg .labelBkg{background-color:rgba(232, 232, 232, 0.5);}#my-svg .cluster rect{fill:#ffffde;stroke:#aaaa33;stroke-width:1px;}#my-svg .cluster text{fill:#333;}#my-svg .cluster span,#my-svg p{color:#333;}#my-svg div.mermaidTooltip{position:absolute;text-align:center;max-width:200px;padding:2px;font-family:"trebuchet ms",verdana,arial,sans-serif;font-size:12px;background:hsl(80, 100%, 96.2745098039%);border:1px solid #aaaa33;border-radius:2px;pointer-events:none;z-index:100;}#my-svg .flowchartTitleText{text-anchor:middle;font-size:18px;fill:#333;}#my-svg :root{--mermaid-font-family:"trebuchet ms",verdana,arial,sans-serif;}</style><g><marker id="my-svg_flowchart-pointEnd" class="marker flowchart" viewBox="0 0 10 10" refX="6" refY="5" markerUnits="userSpaceOnUse" markerWidth="12" markerHeight="12" orient="auto"><path d="M 0 0 L 10 5 L 0 10 z" class="arrowMarkerPath" style="stroke-width: 1; stroke-dasharray: 1, 0;"/></marker><marker id="my-svg_flowchart-pointStart" class="marker flowchart" viewBox="0 0 10 10" refX="4.5" refY="5" markerUnits="userSpaceOnUse" markerWidth="12" markerHeight="12" orient="auto"><path d="M 0 5 L 10 10 L 10 0 z" class="arrowMarkerPath" style="stroke-width: 1; stroke-dasharray: 1, 0;"/></marker><marker id="my-svg_flowchart-circleEnd" class="marker flowchart" viewBox="0 0 10 10" refX="11" refY="5" markerUnits="userSpaceOnUse" markerWidth="11" markerHeight="11" orient="auto"><circle cx="5" cy="5" r="5" class="arrowMarkerPath" style="stroke-width: 1; stroke-dasharray: 1, 0;"/></marker><marker id="my-svg_flowchart-circleStart" class="marker flowchart" viewBox="0 0 10 10" refX="-1" refY="5" markerUnits="userSpaceOnUse" markerWidth="11" markerHeight="11" orient="auto"><circle cx="5" cy="5" r="5" class="arrowMarkerPath" style="stroke-width: 1; stroke-dasharray: 1, 0;"/></marker><marker id="my-svg_flowchart-crossEnd" class="marker cross flowchart" viewBox="0 0 11 11" refX="12" refY="5.2" markerUnits="userSpaceOnUse" markerWidth="11" markerHeight="11" orient="auto"><path d="M 1,1 l 9,9 M 10,1 l -9,9" class="arrowMarkerPath" style="stroke-width: 2; stroke-dasharray: 1, 0;"/></marker><marker id="my-svg_flowchart-crossStart" class="marker cross flowchart" viewBox="0 0 11 11" refX="-1" refY="5.2" markerUnits="userSpaceOnUse" markerWidth="11" markerHeight="11" orient="auto"><path d="M 1,1 l 9,9 M 10,1 l -9,9" class="arrowMarkerPath" style="stroke-width: 2; stroke-dasharray: 1, 0;"/></marker><g class="root"><g class="clusters"/><g class="edgePaths"><path d="M989.746,33.5L989.746,37.667C989.746,41.833,989.746,50.167,989.746,57.617C989.746,65.067,989.746,71.633,989.746,74.917L989.746,78.2" id="L-A-B-0" class="edge-thickness-normal edge-pattern-solid flowchart-link LS-A LE-B" style="fill:none;" marker-end="url(#my-svg_flowchart-pointEnd)"/><path d="M989.746,118.5L989.746,122.667C989.746,126.833,989.746,135.167,989.746,142.617C989.746,150.067,989.746,156.633,989.746,159.917L989.746,163.2" id="L-B-C-0" class="edge-thickness-normal edge-pattern-solid flowchart-link LS-B LE-C" style="fill:none;" marker-end="url(#my-svg_flowchart-pointEnd)"/><path d="M955.695,203.5L944.587,209.208C933.48,214.917,911.265,226.333,900.158,236.867C889.051,247.4,889.051,257.05,889.051,261.875L889.051,266.7" id="L-C-D-0" class="edge-thickness-normal edge-pattern-solid flowchart-link LS-C LE-D" style="fill:none;" marker-end="url(#my-svg_flowchart-pointEnd)"/><path d="M1023.798,203.5L1034.905,209.208C1046.012,214.917,1068.227,226.333,1079.334,236.992C1090.441,247.65,1090.441,257.55,1090.441,262.5L1090.441,267.45" id="L-C-C1-0" class="edge-thickness-normal edge-pattern-solid flowchart-link LS-C LE-C1" style="fill:none;" marker-end="url(#my-svg_flowchart-pointEnd)"/><path d="M889.051,307L889.051,311.167C889.051,315.333,889.051,323.667,889.051,331.117C889.051,338.567,889.051,345.133,889.051,348.417L889.051,351.7" id="L-D-E-0" class="edge-thickness-normal edge-pattern-solid flowchart-link LS-D LE-E" style="fill:none;" marker-end="url(#my-svg_flowchart-pointEnd)"/><path d="M852.664,390.5L843.613,394.667C834.561,398.833,816.458,407.167,807.407,414.617C798.355,422.067,798.355,428.633,798.355,431.917L798.355,435.2" id="L-E-X-0" class="edge-thickness-normal edge-pattern-solid flowchart-link LS-E LE-X" style="fill:none;" marker-end="url(#my-svg_flowchart-pointEnd)"/><path d="M701.788,492.5L686.313,496.667C670.837,500.833,639.887,509.167,621.162,516.967C602.437,524.766,595.939,532.033,592.69,535.666L589.44,539.299" id="L-X-F-0" class="edge-thickness-normal edge-pattern-solid flowchart-link LS-X LE-F" style="fill:none;" marker-end="url(#my-svg_flowchart-pointEnd)"/><path d="M777.484,492.5L774.14,496.667C770.795,500.833,764.105,509.167,760.761,516.617C757.416,524.067,757.416,530.633,757.416,533.917L757.416,537.2" id="L-X-H-0" class="edge-thickness-normal edge-pattern-solid flowchart-link LS-X LE-H" style="fill:none;" marker-end="url(#my-svg_flowchart-pointEnd)"/><path d="M838.603,492.5L845.053,496.667C851.503,500.833,864.403,509.167,870.853,520.417C877.303,531.667,877.303,545.833,877.303,560C877.303,574.167,877.303,588.333,875.593,598.795C873.884,609.257,870.466,616.014,868.756,619.392L867.047,622.771" id="L-X-G-0" class="edge-thickness-normal edge-pattern-solid flowchart-link LS-X LE-G" style="fill:none;" marker-end="url(#my-svg_flowchart-pointEnd)"/><path d="M819.691,382.575L776.564,388.063C733.437,393.55,647.182,404.525,604.055,418.513C560.928,432.5,560.928,449.5,560.928,466.5C560.928,483.5,560.928,500.5,561.735,512.432C562.543,524.364,564.158,531.227,564.965,534.659L565.773,538.091" id="L-E-F-0" class="edge-thickness-normal edge-pattern-solid flowchart-link LS-E LE-F" style="fill:none;" marker-end="url(#my-svg_flowchart-pointEnd)"/><path d="M605.624,576.75L614.514,581.042C623.404,585.333,641.183,593.917,676.19,603.847C711.198,613.778,763.432,625.056,789.55,630.695L815.667,636.335" id="L-F-G-0" class="edge-thickness-normal edge-pattern-solid flowchart-link LS-F LE-G" style="fill:none;" marker-end="url(#my-svg_flowchart-pointEnd)"/><path d="M496.35,576.75L477.242,581.042C458.134,585.333,419.918,593.917,400.809,601.617C381.701,609.317,381.701,616.133,381.701,619.542L381.701,622.95" id="L-F-I-0" class="edge-thickness-normal edge-pattern-solid flowchart-link LS-F LE-I" style="fill:none;" marker-end="url(#my-svg_flowchart-pointEnd)"/><path d="M820.848,650.193L768.619,657.952C716.39,665.712,611.932,681.231,545.334,694.388C478.735,707.545,449.995,718.341,435.625,723.739L421.255,729.136" id="L-G-J-0" class="edge-thickness-normal edge-pattern-solid flowchart-link LS-G LE-J" style="fill:none;" marker-end="url(#my-svg_flowchart-pointEnd)"/><path d="M374.151,661.75L371.521,667.583C368.891,673.417,363.632,685.083,362.271,695.77C360.91,706.457,363.447,716.165,364.715,721.019L365.984,725.872" id="L-I-J-0" class="edge-thickness-normal edge-pattern-solid flowchart-link LS-I LE-J" style="fill:none;" marker-end="url(#my-svg_flowchart-pointEnd)"/><path d="M371.701,764.5L371.701,768.667C371.701,772.833,371.701,781.167,371.701,788.617C371.701,796.067,371.701,802.633,371.701,805.917L371.701,809.2" id="L-J-K-0" class="edge-thickness-normal edge-pattern-solid flowchart-link LS-J LE-K" style="fill:none;" marker-end="url(#my-svg_flowchart-pointEnd)"/><path d="M371.701,848L371.701,852.167C371.701,856.333,371.701,864.667,371.701,872.117C371.701,879.567,371.701,886.133,371.701,889.417L371.701,892.7" id="L-K-L-0" class="edge-thickness-normal edge-pattern-solid flowchart-link LS-K LE-L" style="fill:none;" marker-end="url(#my-svg_flowchart-pointEnd)"/><path d="M371.701,931.5L371.701,935.667C371.701,939.833,371.701,948.167,371.701,955.617C371.701,963.067,371.701,969.633,371.701,972.917L371.701,976.2" id="L-L-M-0" class="edge-thickness-normal edge-pattern-solid flowchart-link LS-L LE-M" style="fill:none;" marker-end="url(#my-svg_flowchart-pointEnd)"/><path d="M255.257,1015L226.291,1019.167C197.325,1023.333,139.393,1031.667,110.427,1039.117C81.461,1046.567,81.461,1053.133,81.461,1056.417L81.461,1059.7" id="L-M-N-0" class="edge-thickness-normal edge-pattern-solid flowchart-link LS-M LE-N" style="fill:none;" marker-end="url(#my-svg_flowchart-pointEnd)"/><path d="M336.1,1015L327.244,1019.167C318.389,1023.333,300.677,1031.667,291.821,1039.117C282.965,1046.567,282.965,1053.133,282.965,1056.417L282.965,1059.7" id="L-M-O-0" class="edge-thickness-normal edge-pattern-solid flowchart-link LS-M LE-O" style="fill:none;" marker-end="url(#my-svg_flowchart-pointEnd)"/><path d="M506.104,1013.334L545.704,1017.778C585.305,1022.223,664.506,1031.111,704.106,1038.839C743.707,1046.567,743.707,1053.133,743.707,1056.417L743.707,1059.7" id="L-M-P-0" class="edge-thickness-normal edge-pattern-solid flowchart-link LS-M LE-P" style="fill:none;" marker-end="url(#my-svg_flowchart-pointEnd)"/><path d="M506.104,1007.858L581.043,1013.215C655.983,1018.572,805.863,1029.286,880.802,1037.926C955.742,1046.567,955.742,1053.133,955.742,1056.417L955.742,1059.7" id="L-M-T-0" class="edge-thickness-normal edge-pattern-solid flowchart-link LS-M LE-T" style="fill:none;" marker-end="url(#my-svg_flowchart-pointEnd)"/><path d="M81.461,1098.5L81.461,1102.667C81.461,1106.833,81.461,1115.167,81.461,1122.617C81.461,1130.067,81.461,1136.633,81.461,1139.917L81.461,1143.2" id="L-N-Q-0" class="edge-thickness-normal edge-pattern-solid flowchart-link LS-N LE-Q" style="fill:none;" marker-end="url(#my-svg_flowchart-pointEnd)"/><path d="M282.965,1098.5L282.965,1102.667C282.965,1106.833,282.965,1115.167,282.965,1122.617C282.965,1130.067,282.965,1136.633,282.965,1139.917L282.965,1143.2" id="L-O-R-0" class="edge-thickness-normal edge-pattern-solid flowchart-link LS-O LE-R" style="fill:none;" marker-end="url(#my-svg_flowchart-pointEnd)"/><path d="M743.707,1098.5L743.707,1102.667C743.707,1106.833,743.707,1115.167,743.707,1122.617C743.707,1130.067,743.707,1136.633,743.707,1139.917L743.707,1143.2" id="L-P-S-0" class="edge-thickness-normal edge-pattern-solid flowchart-link LS-P LE-S" style="fill:none;" marker-end="url(#my-svg_flowchart-pointEnd)"/><path d="M743.707,1183.5L743.707,1187.667C743.707,1191.833,743.707,1200.167,732.321,1208.215C720.936,1216.263,698.164,1224.027,686.778,1227.908L675.392,1231.79" id="L-S-U-0" class="edge-thickness-normal edge-pattern-solid flowchart-link LS-S LE-U" style="fill:none;" marker-end="url(#my-svg_flowchart-pointEnd)"/><path d="M498.781,1182.75L498.781,1187.042C498.781,1191.333,498.781,1199.917,510.167,1208.09C521.553,1216.263,544.324,1224.027,555.71,1227.908L567.096,1231.79" id="L-V-U-0" class="edge-thickness-normal edge-pattern-solid flowchart-link LS-V LE-U" style="fill:none;" marker-end="url(#my-svg_flowchart-pointEnd)"/><path d="M890.754,657.272L909.495,663.851C928.236,670.431,965.717,683.591,961.179,695.675C956.64,707.76,910.081,718.77,886.802,724.275L863.522,729.78" id="L-G-W-0" class="edge-thickness-normal edge-pattern-solid flowchart-link LS-G LE-W" style="fill:none;" marker-end="url(#my-svg_flowchart-pointEnd)"/><path d="M926.823,390.5L936.219,394.667C945.615,398.833,964.407,407.167,973.803,419.833C983.199,432.5,983.199,449.5,983.199,466.5C983.199,483.5,983.199,500.5,983.199,516.083C983.199,531.667,983.199,545.833,983.199,560C983.199,574.167,983.199,588.333,983.199,602.5C983.199,616.667,983.199,630.833,983.199,646.542C983.199,662.25,983.199,679.5,962.153,693.611C941.108,707.721,899.016,718.692,877.97,724.178L856.925,729.663" id="L-E-W-0" class="edge-thickness-normal edge-pattern-solid flowchart-link LS-E LE-W" style="fill:none;" marker-end="url(#my-svg_flowchart-pointEnd)"/><path d="M572.918,576.75L573.428,581.042C573.938,585.333,574.958,593.917,575.468,605.292C575.979,616.667,575.979,630.833,575.979,646.542C575.979,662.25,575.979,679.5,598.799,693.626C621.619,707.753,667.259,718.755,690.079,724.257L712.9,729.758" id="L-F-W-0" class="edge-thickness-normal edge-pattern-solid flowchart-link LS-F LE-W" style="fill:none;" marker-end="url(#my-svg_flowchart-pointEnd)"/><path d="M428.884,661.75L445.316,667.583C461.747,673.417,494.611,685.083,540.659,696.725C586.707,708.366,645.94,719.982,675.556,725.79L705.172,731.598" id="L-I-W-0" class="edge-thickness-normal edge-pattern-solid flowchart-link LS-I LE-W" style="fill:none;" marker-end="url(#my-svg_flowchart-pointEnd)"/></g><g class="edgeLabels"><g class="edgeLabel"><g class="label" transform="translate(0, 0)"><foreignObject width="0" height="0"><div xmlns="http://www.w3.org/1999/xhtml" style="display: inline-block; white-space: nowrap;"><span class="edgeLabel"></span></div></foreignObject></g></g><g class="edgeLabel"><g class="label" transform="translate(0, 0)"><foreignObject width="0" height="0"><div xmlns="http://www.w3.org/1999/xhtml" style="display: inline-block; white-space: nowrap;"><span class="edgeLabel"></span></div></foreignObject></g></g><g class="edgeLabel" transform="translate(889.05078125, 237.75)"><g class="label" transform="translate(-37.578125, -9.25)"><foreignObject width="75.15625" height="18.5"><div xmlns="http://www.w3.org/1999/xhtml" style="display: inline-block; white-space: nowrap;"><span class="edgeLabel">APPROVED</span></div></foreignObject></g></g><g class="edgeLabel" transform="translate(1090.44140625, 237.75)"><g class="label" transform="translate(-35.66015625, -9.25)"><foreignObject width="71.3203125" height="18.5"><div xmlns="http://www.w3.org/1999/xhtml" style="display: inline-block; white-space: nowrap;"><span class="edgeLabel">REJECTED</span></div></foreignObject></g></g><g class="edgeLabel"><g class="label" transform="translate(0, 0)"><foreignObject width="0" height="0"><div xmlns="http://www.w3.org/1999/xhtml" style="display: inline-block; white-space: nowrap;"><span class="edgeLabel"></span></div></foreignObject></g></g><g class="edgeLabel"><g class="label" transform="translate(0, 0)"><foreignObject width="0" height="0"><div xmlns="http://www.w3.org/1999/xhtml" style="display: inline-block; white-space: nowrap;"><span class="edgeLabel"></span></div></foreignObject></g></g><g class="edgeLabel"><g class="label" transform="translate(0, 0)"><foreignObject width="0" height="0"><div xmlns="http://www.w3.org/1999/xhtml" style="display: inline-block; white-space: nowrap;"><span class="edgeLabel"></span></div></foreignObject></g></g><g class="edgeLabel"><g class="label" transform="translate(0, 0)"><foreignObject width="0" height="0"><div xmlns="http://www.w3.org/1999/xhtml" style="display: inline-block; white-space: nowrap;"><span class="edgeLabel"></span></div></foreignObject></g></g><g class="edgeLabel"><g class="label" transform="translate(0, 0)"><foreignObject width="0" height="0"><div xmlns="http://www.w3.org/1999/xhtml" style="display: inline-block; white-space: nowrap;"><span class="edgeLabel"></span></div></foreignObject></g></g><g class="edgeLabel"><g class="label" transform="translate(0, 0)"><foreignObject width="0" height="0"><div xmlns="http://www.w3.org/1999/xhtml" style="display: inline-block; white-space: nowrap;"><span class="edgeLabel"></span></div></foreignObject></g></g><g class="edgeLabel"><g class="label" transform="translate(0, 0)"><foreignObject width="0" height="0"><div xmlns="http://www.w3.org/1999/xhtml" style="display: inline-block; white-space: nowrap;"><span class="edgeLabel"></span></div></foreignObject></g></g><g class="edgeLabel"><g class="label" transform="translate(0, 0)"><foreignObject width="0" height="0"><div xmlns="http://www.w3.org/1999/xhtml" style="display: inline-block; white-space: nowrap;"><span class="edgeLabel"></span></div></foreignObject></g></g><g class="edgeLabel"><g class="label" transform="translate(0, 0)"><foreignObject width="0" height="0"><div xmlns="http://www.w3.org/1999/xhtml" style="display: inline-block; white-space: nowrap;"><span class="edgeLabel"></span></div></foreignObject></g></g><g class="edgeLabel" transform="translate(358.373046875, 696.75)"><g class="label" transform="translate(-62.91015625, -9.25)"><foreignObject width="125.8203125" height="18.5"><div xmlns="http://www.w3.org/1999/xhtml" style="display: inline-block; white-space: nowrap;"><span class="edgeLabel">filledQuantity &gt; 0</span></div></foreignObject></g></g><g class="edgeLabel"><g class="label" transform="translate(0, 0)"><foreignObject width="0" height="0"><div xmlns="http://www.w3.org/1999/xhtml" style="display: inline-block; white-space: nowrap;"><span class="edgeLabel"></span></div></foreignObject></g></g><g class="edgeLabel"><g class="label" transform="translate(0, 0)"><foreignObject width="0" height="0"><div xmlns="http://www.w3.org/1999/xhtml" style="display: inline-block; white-space: nowrap;"><span class="edgeLabel"></span></div></foreignObject></g></g><g class="edgeLabel"><g class="label" transform="translate(0, 0)"><foreignObject width="0" height="0"><div xmlns="http://www.w3.org/1999/xhtml" style="display: inline-block; white-space: nowrap;"><span class="edgeLabel"></span></div></foreignObject></g></g><g class="edgeLabel"><g class="label" transform="translate(0, 0)"><foreignObject width="0" height="0"><div xmlns="http://www.w3.org/1999/xhtml" style="display: inline-block; white-space: nowrap;"><span class="edgeLabel"></span></div></foreignObject></g></g><g class="edgeLabel"><g class="label" transform="translate(0, 0)"><foreignObject width="0" height="0"><div xmlns="http://www.w3.org/1999/xhtml" style="display: inline-block; white-space: nowrap;"><span class="edgeLabel"></span></div></foreignObject></g></g><g class="edgeLabel"><g class="label" transform="translate(0, 0)"><foreignObject width="0" height="0"><div xmlns="http://www.w3.org/1999/xhtml" style="display: inline-block; white-space: nowrap;"><span class="edgeLabel"></span></div></foreignObject></g></g><g class="edgeLabel"><g class="label" transform="translate(0, 0)"><foreignObject width="0" height="0"><div xmlns="http://www.w3.org/1999/xhtml" style="display: inline-block; white-space: nowrap;"><span class="edgeLabel"></span></div></foreignObject></g></g><g class="edgeLabel"><g class="label" transform="translate(0, 0)"><foreignObject width="0" height="0"><div xmlns="http://www.w3.org/1999/xhtml" style="display: inline-block; white-space: nowrap;"><span class="edgeLabel"></span></div></foreignObject></g></g><g class="edgeLabel"><g class="label" transform="translate(0, 0)"><foreignObject width="0" height="0"><div xmlns="http://www.w3.org/1999/xhtml" style="display: inline-block; white-space: nowrap;"><span class="edgeLabel"></span></div></foreignObject></g></g><g class="edgeLabel"><g class="label" transform="translate(0, 0)"><foreignObject width="0" height="0"><div xmlns="http://www.w3.org/1999/xhtml" style="display: inline-block; white-space: nowrap;"><span class="edgeLabel"></span></div></foreignObject></g></g><g class="edgeLabel"><g class="label" transform="translate(0, 0)"><foreignObject width="0" height="0"><div xmlns="http://www.w3.org/1999/xhtml" style="display: inline-block; white-space: nowrap;"><span class="edgeLabel"></span></div></foreignObject></g></g><g class="edgeLabel"><g class="label" transform="translate(0, 0)"><foreignObject width="0" height="0"><div xmlns="http://www.w3.org/1999/xhtml" style="display: inline-block; white-space: nowrap;"><span class="edgeLabel"></span></div></foreignObject></g></g><g class="edgeLabel"><g class="label" transform="translate(0, 0)"><foreignObject width="0" height="0"><div xmlns="http://www.w3.org/1999/xhtml" style="display: inline-block; white-space: nowrap;"><span class="edgeLabel"></span></div></foreignObject></g></g><g class="edgeLabel"><g class="label" transform="translate(0, 0)"><foreignObject width="0" height="0"><div xmlns="http://www.w3.org/1999/xhtml" style="display: inline-block; white-space: nowrap;"><span class="edgeLabel"></span></div></foreignObject></g></g><g class="edgeLabel"><g class="label" transform="translate(0, 0)"><foreignObject width="0" height="0"><div xmlns="http://www.w3.org/1999/xhtml" style="display: inline-block; white-space: nowrap;"><span class="edgeLabel"></span></div></foreignObject></g></g><g class="edgeLabel"><g class="label" transform="translate(0, 0)"><foreignObject width="0" height="0"><div xmlns="http://www.w3.org/1999/xhtml" style="display: inline-block; white-space: nowrap;"><span class="edgeLabel"></span></div></foreignObject></g></g></g><g class="nodes"><g class="node default default flowchart-label" id="flowchart-A-0" data-node="true" data-id="A" transform="translate(989.74609375, 16.75)"><rect class="basic label-container" style="" rx="0" ry="0" x="-119.609375" y="-16.75" width="239.21875" height="33.5"/><g class="label" style="" transform="translate(-112.109375, -9.25)"><rect/><foreignObject width="224.21875" height="18.5"><div xmlns="http://www.w3.org/1999/xhtml" style="display: inline-block; white-space: nowrap;"><span class="nodeLabel">Client / Strategy / Rebalancing</span></div></foreignObject></g></g><g class="node default default flowchart-label" id="flowchart-B-1" data-node="true" data-id="B" transform="translate(989.74609375, 101)"><rect class="basic label-container" style="" rx="0" ry="0" x="-65.859375" y="-17.5" width="131.71875" height="35"/><g class="label" style="" transform="translate(-58.359375, -10)"><rect/><foreignObject width="116.71875" height="20"><div xmlns="http://www.w3.org/1999/xhtml" style="display: inline-block; white-space: nowrap;"><span class="nodeLabel">OrderIntent 생성</span></div></foreignObject></g></g><g class="node default default flowchart-label" id="flowchart-C-3" data-node="true" data-id="C" transform="translate(989.74609375, 186)"><rect class="basic label-container" style="" rx="0" ry="0" x="-74.76953125" y="-17.5" width="149.5390625" height="35"/><g class="label" style="" transform="translate(-67.26953125, -10)"><rect/><foreignObject width="134.5390625" height="20"><div xmlns="http://www.w3.org/1999/xhtml" style="display: inline-block; white-space: nowrap;"><span class="nodeLabel">Pre-Trade Risk 평가</span></div></foreignObject></g></g><g class="node default default flowchart-label" id="flowchart-D-5" data-node="true" data-id="D" transform="translate(889.05078125, 289.5)"><rect class="basic label-container" style="" rx="0" ry="0" x="-44.18359375" y="-17.5" width="88.3671875" height="35"/><g class="label" style="" transform="translate(-36.68359375, -10)"><rect/><foreignObject width="73.3671875" height="20"><div xmlns="http://www.w3.org/1999/xhtml" style="display: inline-block; white-space: nowrap;"><span class="nodeLabel">Order 변환</span></div></foreignObject></g></g><g class="node default default flowchart-label" id="flowchart-C1-7" data-node="true" data-id="C1" transform="translate(1090.44140625, 289.5)"><rect class="basic label-container" style="" rx="0" ry="0" x="-107.20703125" y="-16.75" width="214.4140625" height="33.5"/><g class="label" style="" transform="translate(-99.70703125, -9.25)"><rect/><foreignObject width="199.4140625" height="18.5"><div xmlns="http://www.w3.org/1999/xhtml" style="display: inline-block; white-space: nowrap;"><span class="nodeLabel">OrderIntent RISK_REJECTED</span></div></foreignObject></g></g><g class="node default default flowchart-label" id="flowchart-E-9" data-node="true" data-id="E" transform="translate(889.05078125, 373.75)"><rect class="basic label-container" style="" rx="0" ry="0" x="-69.359375" y="-16.75" width="138.71875" height="33.5"/><g class="label" style="" transform="translate(-61.859375, -9.25)"><rect/><foreignObject width="123.71875" height="18.5"><div xmlns="http://www.w3.org/1999/xhtml" style="display: inline-block; white-space: nowrap;"><span class="nodeLabel">Order Submission</span></div></foreignObject></g></g><g class="node default default flowchart-label" id="flowchart-X-11" data-node="true" data-id="X" transform="translate(798.35546875, 466.5)"><rect class="basic label-container" style="" rx="0" ry="0" x="-149.84375" y="-26" width="299.6875" height="52"/><g class="label" style="" transform="translate(-142.34375, -18.5)"><rect/><foreignObject width="284.6875" height="37"><div xmlns="http://www.w3.org/1999/xhtml" style="display: inline-block; white-space: nowrap;"><span class="nodeLabel">Execution Simulation<br />Delay / Reject / Latest Price / Slippage</span></div></foreignObject></g></g><g class="node default default flowchart-label" id="flowchart-F-13" data-node="true" data-id="F" transform="translate(570.927734375, 560)"><rect class="basic label-container" style="" rx="0" ry="0" x="-89.609375" y="-16.75" width="179.21875" height="33.5"/><g class="label" style="" transform="translate(-82.109375, -9.25)"><rect/><foreignObject width="164.21875" height="18.5"><div xmlns="http://www.w3.org/1999/xhtml" style="display: inline-block; white-space: nowrap;"><span class="nodeLabel">Broker / Exchange ACK</span></div></foreignObject></g></g><g class="node default default flowchart-label" id="flowchart-H-15" data-node="true" data-id="H" transform="translate(757.416015625, 560)"><rect class="basic label-container" style="" rx="0" ry="0" x="-46.87890625" y="-17.5" width="93.7578125" height="35"/><g class="label" style="" transform="translate(-39.37890625, -10)"><rect/><foreignObject width="78.7578125" height="20"><div xmlns="http://www.w3.org/1999/xhtml" style="display: inline-block; white-space: nowrap;"><span class="nodeLabel">Reject 반영</span></div></foreignObject></g></g><g class="node default default flowchart-label" id="flowchart-G-17" data-node="true" data-id="G" transform="translate(855.80078125, 645)"><rect class="basic label-container" style="" rx="0" ry="0" x="-34.953125" y="-17.5" width="69.90625" height="35"/><g class="label" style="" transform="translate(-27.453125, -10)"><rect/><foreignObject width="54.90625" height="20"><div xmlns="http://www.w3.org/1999/xhtml" style="display: inline-block; white-space: nowrap;"><span class="nodeLabel">Fill 반영</span></div></foreignObject></g></g><g class="node default default flowchart-label" id="flowchart-I-23" data-node="true" data-id="I" transform="translate(381.701171875, 645)"><rect class="basic label-container" style="" rx="0" ry="0" x="-118.0234375" y="-16.75" width="236.046875" height="33.5"/><g class="label" style="" transform="translate(-110.5234375, -9.25)"><rect/><foreignObject width="221.046875" height="18.5"><div xmlns="http://www.w3.org/1999/xhtml" style="display: inline-block; white-space: nowrap;"><span class="nodeLabel">Cancel Request / Confirmation</span></div></foreignObject></g></g><g class="node default default flowchart-label" id="flowchart-J-25" data-node="true" data-id="J" transform="translate(371.701171875, 747.75)"><rect class="basic label-container" style="" rx="0" ry="0" x="-58.26953125" y="-16.75" width="116.5390625" height="33.5"/><g class="label" style="" transform="translate(-50.76953125, -9.25)"><rect/><foreignObject width="101.5390625" height="18.5"><div xmlns="http://www.w3.org/1999/xhtml" style="display: inline-block; white-space: nowrap;"><span class="nodeLabel">Trade Capture</span></div></foreignObject></g></g><g class="node default default flowchart-label" id="flowchart-K-29" data-node="true" data-id="K" transform="translate(371.701171875, 831.25)"><rect class="basic label-container" style="" rx="0" ry="0" x="-81.828125" y="-16.75" width="163.65625" height="33.5"/><g class="label" style="" transform="translate(-74.328125, -9.25)"><rect/><foreignObject width="148.65625" height="18.5"><div xmlns="http://www.w3.org/1999/xhtml" style="display: inline-block; white-space: nowrap;"><span class="nodeLabel">Settlement Schedule</span></div></foreignObject></g></g><g class="node default default flowchart-label" id="flowchart-L-31" data-node="true" data-id="L" transform="translate(371.701171875, 914.75)"><rect class="basic label-container" style="" rx="0" ry="0" x="-96.4921875" y="-16.75" width="192.984375" height="33.5"/><g class="label" style="" transform="translate(-88.9921875, -9.25)"><rect/><foreignObject width="177.984375" height="18.5"><div xmlns="http://www.w3.org/1999/xhtml" style="display: inline-block; white-space: nowrap;"><span class="nodeLabel">Settlement Confirmation</span></div></foreignObject></g></g><g class="node default default flowchart-label" id="flowchart-M-33" data-node="true" data-id="M" transform="translate(371.701171875, 998.25)"><rect class="basic label-container" style="" rx="0" ry="0" x="-134.40234375" y="-16.75" width="268.8046875" height="33.5"/><g class="label" style="" transform="translate(-126.90234375, -9.25)"><rect/><foreignObject width="253.8046875" height="18.5"><div xmlns="http://www.w3.org/1999/xhtml" style="display: inline-block; white-space: nowrap;"><span class="nodeLabel">Post-Settlement Accounting Posting</span></div></foreignObject></g></g><g class="node default default flowchart-label" id="flowchart-N-35" data-node="true" data-id="N" transform="translate(81.4609375, 1081.75)"><rect class="basic label-container" style="" rx="0" ry="0" x="-62.28515625" y="-16.75" width="124.5703125" height="33.5"/><g class="label" style="" transform="translate(-54.78515625, -9.25)"><rect/><foreignObject width="109.5703125" height="18.5"><div xmlns="http://www.w3.org/1999/xhtml" style="display: inline-block; white-space: nowrap;"><span class="nodeLabel">Position Ledger</span></div></foreignObject></g></g><g class="node default default flowchart-label" id="flowchart-O-37" data-node="true" data-id="O" transform="translate(282.96484375, 1081.75)"><rect class="basic label-container" style="" rx="0" ry="0" x="-50.8671875" y="-16.75" width="101.734375" height="33.5"/><g class="label" style="" transform="translate(-43.3671875, -9.25)"><rect/><foreignObject width="86.734375" height="18.5"><div xmlns="http://www.w3.org/1999/xhtml" style="display: inline-block; white-space: nowrap;"><span class="nodeLabel">Cash Ledger</span></div></foreignObject></g></g><g class="node default default flowchart-label" id="flowchart-P-39" data-node="true" data-id="P" transform="translate(743.70703125, 1081.75)"><rect class="basic label-container" style="" rx="0" ry="0" x="-81.515625" y="-16.75" width="163.03125" height="33.5"/><g class="label" style="" transform="translate(-74.015625, -9.25)"><rect/><foreignObject width="148.03125" height="18.5"><div xmlns="http://www.w3.org/1999/xhtml" style="display: inline-block; white-space: nowrap;"><span class="nodeLabel">Average Cost Posting</span></div></foreignObject></g></g><g class="node default default flowchart-label" id="flowchart-T-41" data-node="true" data-id="T" transform="translate(955.7421875, 1081.75)"><rect class="basic label-container" style="" rx="0" ry="0" x="-80.51953125" y="-16.75" width="161.0390625" height="33.5"/><g class="label" style="" transform="translate(-73.01953125, -9.25)"><rect/><foreignObject width="146.0390625" height="18.5"><div xmlns="http://www.w3.org/1999/xhtml" style="display: inline-block; white-space: nowrap;"><span class="nodeLabel">Realized PnL Posting</span></div></foreignObject></g></g><g class="node default default flowchart-label" id="flowchart-Q-43" data-node="true" data-id="Q" transform="translate(81.4609375, 1166)"><rect class="basic label-container" style="" rx="0" ry="0" x="-81.4609375" y="-17.5" width="162.921875" height="35"/><g class="label" style="" transform="translate(-73.9609375, -10)"><rect/><foreignObject width="147.921875" height="20"><div xmlns="http://www.w3.org/1999/xhtml" style="display: inline-block; white-space: nowrap;"><span class="nodeLabel">Current Position 조회</span></div></foreignObject></g></g><g class="node default default flowchart-label" id="flowchart-R-45" data-node="true" data-id="R" transform="translate(282.96484375, 1166)"><rect class="basic label-container" style="" rx="0" ry="0" x="-70.04296875" y="-17.5" width="140.0859375" height="35"/><g class="label" style="" transform="translate(-62.54296875, -10)"><rect/><foreignObject width="125.0859375" height="20"><div xmlns="http://www.w3.org/1999/xhtml" style="display: inline-block; white-space: nowrap;"><span class="nodeLabel">Current Cash 조회</span></div></foreignObject></g></g><g class="node default default flowchart-label" id="flowchart-S-47" data-node="true" data-id="S" transform="translate(743.70703125, 1166)"><rect class="basic label-container" style="" rx="0" ry="0" x="-99.15234375" y="-17.5" width="198.3046875" height="35"/><g class="label" style="" transform="translate(-91.65234375, -10)"><rect/><foreignObject width="183.3046875" height="20"><div xmlns="http://www.w3.org/1999/xhtml" style="display: inline-block; white-space: nowrap;"><span class="nodeLabel">Current Average Cost 조회</span></div></foreignObject></g></g><g class="node default default flowchart-label" id="flowchart-U-49" data-node="true" data-id="U" transform="translate(621.244140625, 1250.25)"><rect class="basic label-container" style="" rx="0" ry="0" x="-95.3515625" y="-16.75" width="190.703125" height="33.5"/><g class="label" style="" transform="translate(-87.8515625, -9.25)"><rect/><foreignObject width="175.703125" height="18.5"><div xmlns="http://www.w3.org/1999/xhtml" style="display: inline-block; white-space: nowrap;"><span class="nodeLabel">Unrealized PnL Snapshot</span></div></foreignObject></g></g><g class="node default default flowchart-label" id="flowchart-V-50" data-node="true" data-id="V" transform="translate(498.78125, 1166)"><rect class="basic label-container" style="" rx="0" ry="0" x="-95.7734375" y="-16.75" width="191.546875" height="33.5"/><g class="label" style="" transform="translate(-88.2734375, -9.25)"><rect/><foreignObject width="176.546875" height="18.5"><div xmlns="http://www.w3.org/1999/xhtml" style="display: inline-block; white-space: nowrap;"><span class="nodeLabel">Market Data Latest Price</span></div></foreignObject></g></g><g class="node default default flowchart-label" id="flowchart-W-53" data-node="true" data-id="W" transform="translate(787.533203125, 747.75)"><rect class="basic label-container" style="" rx="0" ry="0" x="-77.16015625" y="-16.75" width="154.3203125" height="33.5"/><g class="label" style="" transform="translate(-69.66015625, -9.25)"><rect/><foreignObject width="139.3203125" height="18.5"><div xmlns="http://www.w3.org/1999/xhtml" style="display: inline-block; white-space: nowrap;"><span class="nodeLabel">Audit Trail / Replay</span></div></foreignObject></g></g></g></g></g></svg>